<svg width="67" height="67" viewBox="0 0 67 67" fill="none" xmlns="http://www.w3.org/2000/svg">
<rect width="67" height="67" rx="33.5" fill="#214538"/>
<path d="M44.1425 28.5712C44.1425 22.4698 39.1727 17.5 33.0712 17.5C26.9698 17.5 22 22.4698 22 28.5712C22 30.5231 22.5085 32.4257 23.4762 34.1151L32.0051 48.8767C32.2184 49.254 32.6284 49.5 33.0712 49.5C33.5141 49.5 33.9241 49.2704 34.1374 48.8767L42.6499 34.1151C43.6176 32.4421 44.1261 30.5231 44.1261 28.5712H44.1425ZM33.0712 45.7932L25.6084 32.8849C24.8539 31.5728 24.4603 30.0966 24.4603 28.5712C24.4603 23.8311 28.3311 19.9603 33.0712 19.9603C37.8114 19.9603 41.6822 23.8311 41.6822 28.5712C41.6822 30.0802 41.2886 31.5728 40.5341 32.8685L33.0712 45.7932Z" fill="white"/>
<path d="M33.0711 24.0586C30.578 24.0586 28.5605 26.076 28.5605 28.5691C28.5605 31.0622 30.578 33.0796 33.0711 33.0796C35.5641 33.0796 37.5816 31.0622 37.5816 28.5691C37.5816 26.076 35.5641 24.0586 33.0711 24.0586ZM33.0711 30.6193C31.9393 30.6193 31.0208 29.7008 31.0208 28.5691C31.0208 27.4374 31.9393 26.5189 33.0711 26.5189C34.2028 26.5189 35.1213 27.4374 35.1213 28.5691C35.1213 29.7008 34.2028 30.6193 33.0711 30.6193Z" fill="white"/>
</svg>
