<svg width="114" height="114" viewBox="0 0 114 114" fill="none" xmlns="http://www.w3.org/2000/svg">
<circle cx="56.5685" cy="56.5684" r="39.5" transform="rotate(-45 56.5685 56.5684)" stroke="#214538"/>
<path d="M47.2476 45.319C46.715 44.7864 45.8516 44.7864 45.3191 45.319C44.7866 45.8515 44.7866 46.7149 45.3191 47.2474L46.2833 46.2832L47.2476 45.319ZM66.8537 68.2172C67.6068 68.2172 68.2173 67.6067 68.2173 66.8536V54.5809C68.2173 53.8277 67.6068 53.2172 66.8537 53.2172C66.1006 53.2172 65.4901 53.8277 65.4901 54.5809V65.4899H54.581C53.8279 65.4899 53.2173 66.1005 53.2173 66.8536C53.2173 67.6067 53.8279 68.2172 54.581 68.2172H66.8537ZM46.2833 46.2832L45.3191 47.2474L65.8895 67.8178L66.8537 66.8536L67.8179 65.8893L47.2476 45.319L46.2833 46.2832Z" fill="#214538"/>
</svg>
