<svg width="46" height="46" viewBox="0 0 46 46" fill="none" xmlns="http://www.w3.org/2000/svg">
<path d="M42.6007 17.4012C42.5946 15.1288 41.8974 12.912 40.6017 11.0452C39.306 9.17838 37.4731 7.74985 35.3464 6.94929C33.2197 6.14873 30.8998 6.01403 28.6947 6.56306C26.4896 7.11209 24.5037 8.31888 23.0007 10.0232C21.9565 8.82099 20.666 7.85747 19.2166 7.19801C17.7672 6.53856 16.193 6.19859 14.6006 6.20119C11.765 6.22053 9.04217 7.31482 6.98176 9.26322C4.92135 11.2116 3.67673 13.869 3.49907 16.6992C3.32141 19.5294 4.22393 22.3216 6.0245 24.5124C7.82507 26.7032 10.3896 28.1294 13.2006 28.5032V37.0012H9.00065C8.62935 37.0012 8.27325 37.1487 8.0107 37.4112C7.74815 37.6738 7.60065 38.0299 7.60065 38.4012C7.60065 38.7725 7.74815 39.1286 8.0107 39.3911C8.27325 39.6537 8.62935 39.8012 9.00065 39.8012H37.0007C37.372 39.8012 37.7281 39.6537 37.9906 39.3911C38.2532 39.1286 38.4007 38.7725 38.4007 38.4012C38.4007 38.0299 38.2532 37.6738 37.9906 37.4112C37.7281 37.1487 37.372 37.0012 37.0007 37.0012H32.8007V28.5032C35.5055 28.1624 37.9931 26.8468 39.7973 24.8029C41.6014 22.7591 42.5982 20.1274 42.6007 17.4012ZM31.4007 9.00119C33.4984 9.01334 35.5156 9.80995 37.0557 11.2343C38.5957 12.6587 39.547 14.6078 39.7225 16.6982C39.8981 18.7886 39.2851 20.8691 38.0041 22.5303C36.7232 24.1916 34.867 25.3134 32.8007 25.6752V23.5752L35.1946 21.1952C35.3252 21.0647 35.4287 20.9097 35.4994 20.7391C35.57 20.5686 35.6064 20.3858 35.6064 20.2012C35.6064 20.0166 35.57 19.8338 35.4994 19.6632C35.4287 19.4927 35.3252 19.3377 35.1946 19.2072C35.0641 19.0767 34.9091 18.9731 34.7386 18.9025C34.568 18.8318 34.3853 18.7955 34.2007 18.7955C34.016 18.7955 33.8333 18.8318 33.6627 18.9025C33.4922 18.9731 33.3372 19.0767 33.2067 19.2072L32.8007 19.6272V18.8012C32.8007 18.4299 32.6532 18.0738 32.3906 17.8112C32.1281 17.5487 31.772 17.4012 31.4007 17.4012C31.0293 17.4012 30.6733 17.5487 30.4107 17.8112C30.1481 18.0738 30.0007 18.4299 30.0007 18.8012V25.6752C27.9343 25.3134 26.0781 24.1916 24.7972 22.5303C23.5162 20.8691 22.9032 18.7886 23.0788 16.6982C23.2543 14.6078 24.2056 12.6587 25.7456 11.2343C27.2857 9.80995 29.3029 9.01334 31.4007 9.00119ZM6.20065 17.4012C6.20065 15.1734 7.08565 13.0368 8.66095 11.4615C10.2363 9.88618 12.3728 9.00119 14.6006 9.00119C15.9202 8.9976 17.2216 9.30807 18.3974 9.90692C19.5732 10.5058 20.5896 11.3758 21.3627 12.4452C20.6043 13.9876 20.2069 15.6824 20.2007 17.4012C20.2068 19.1216 20.6092 20.8174 21.3767 22.3572C20.0847 24.1206 18.1561 25.3109 16.0007 25.6752V23.5752L18.3947 21.1952C18.6583 20.9316 18.8064 20.574 18.8064 20.2012C18.8064 19.8284 18.6583 19.4708 18.3947 19.2072C18.131 18.9436 17.7735 18.7955 17.4007 18.7955C17.0278 18.7955 16.6703 18.9436 16.4067 19.2072L16.0007 19.6272V18.8012C16.0007 18.4299 15.8532 18.0738 15.5906 17.8112C15.328 17.5487 14.972 17.4012 14.6006 17.4012C14.2293 17.4012 13.8733 17.5487 13.6107 17.8112C13.3481 18.0738 13.2006 18.4299 13.2006 18.8012V25.6752C11.2448 25.3446 9.46898 24.3325 8.18779 22.8181C6.90659 21.3037 6.20266 19.3848 6.20065 17.4012ZM16.0007 37.0012V28.5172C18.71 28.1709 21.1995 26.8466 23.0007 24.7932C24.7992 26.8476 27.2909 28.1682 30.0007 28.5032V37.0012H16.0007Z" fill="white"/>
</svg>
