<svg width="36" height="19" viewBox="0 0 36 19" fill="none" xmlns="http://www.w3.org/2000/svg">
<path d="M3.17184 10.9885C2.95536 10.7189 2.95536 10.2819 3.17184 10.0124C3.38831 9.74287 3.73928 9.74287 3.95575 10.0124L5.99388 12.5501L8.0319 10.0125C8.24837 9.743 8.59934 9.743 8.81582 10.0125C9.03229 10.2821 9.03229 10.7191 8.81582 10.9886L6.77779 13.5262L8.81604 16.064C9.03251 16.3336 9.03251 16.7706 8.81604 17.0401C8.59956 17.3096 8.24859 17.3096 8.03212 17.0401L5.99388 14.5022L3.95553 17.0402C3.73906 17.3097 3.38809 17.3097 3.17162 17.0402C2.95514 16.7707 2.95514 16.3337 3.17162 16.0641L5.20996 13.5262L3.17184 10.9885Z" fill="#214538"/>
<path d="M27.5615 10.9885C27.3451 10.7189 27.3451 10.2819 27.5615 10.0124C27.778 9.74287 28.129 9.74287 28.3454 10.0124L30.3836 12.5502L32.4217 10.0125C32.6382 9.743 32.9891 9.743 33.2056 10.0125C33.4221 10.2821 33.4221 10.7191 33.2056 10.9886L31.1675 13.5262L33.2057 16.064C33.4222 16.3336 33.4222 16.7706 33.2057 17.0401C32.9893 17.3096 32.6383 17.3096 32.4218 17.0401L30.3836 14.5023L28.3453 17.0402C28.1288 17.3097 27.7779 17.3097 27.5614 17.0402C27.3449 16.7707 27.3449 16.3337 27.5614 16.0641L29.5997 13.5262L27.5615 10.9885Z" fill="#214538"/>
<path fill-rule="evenodd" clip-rule="evenodd" d="M35.7143 4.52685C35.7143 2.96008 35.7143 2.17669 35.4694 1.57827C35.254 1.05188 34.9103 0.623905 34.4875 0.355695C34.0069 0.0507812 33.3777 0.0507812 32.1194 0.0507812H17.0495C16.4996 0.0507812 16.2247 0.0507812 15.966 0.128163C15.7366 0.196768 15.5173 0.309924 15.3162 0.463471C15.0894 0.636657 14.8951 0.878824 14.5064 1.36316L10.3341 6.56265C9.94547 7.04699 9.75115 7.28916 9.52432 7.46234C9.32322 7.61589 9.10395 7.72904 8.87458 7.79765C8.61586 7.87503 8.34092 7.87503 7.79105 7.87503H3.5949C2.33657 7.87503 1.7074 7.87503 1.22678 8.17995C0.804017 8.44816 0.460298 8.87613 0.244888 9.40252C0 10.0009 0 10.7843 0 12.3511V14.3642C0 15.931 0 16.7143 0.244888 17.3128C0.460298 17.8392 0.804017 18.2671 1.22678 18.5353C1.7074 18.8403 2.33657 18.8403 3.5949 18.8403L32.3481 18.8402C33.4558 18.8391 34.0369 18.8212 34.4875 18.5353C34.9103 18.2671 35.254 17.8392 35.4694 17.3128C35.7143 16.7143 35.7143 15.931 35.7143 14.3642V4.52685ZM32.2373 17.9008L3.5949 17.9008C2.95329 17.9008 2.51745 17.9001 2.18064 17.8658C1.85264 17.8324 1.68554 17.772 1.56933 17.6983C1.28854 17.5201 1.06025 17.2359 0.917177 16.8863C0.857963 16.7416 0.809431 16.5335 0.782632 16.1251C0.755114 15.7057 0.754527 15.1631 0.754527 14.3642V12.3511C0.754527 11.5522 0.755114 11.0095 0.782632 10.5902C0.809431 10.1818 0.857963 9.97373 0.917177 9.82903C1.06025 9.47941 1.28854 9.19516 1.56933 9.01702C1.68554 8.9433 1.85264 8.88287 2.18064 8.8495C2.51745 8.81524 2.95329 8.81451 3.5949 8.81451L7.96603 8.81456C8.40097 8.81468 8.73615 8.81127 9.06086 8.71711C9.35869 8.63075 9.64418 8.48822 9.90742 8.29446C10.2058 8.07483 10.458 7.77453 10.7908 7.37813L15.3363 1.96994C15.7463 1.48204 15.8684 1.34471 15.9987 1.24882C16.1295 1.15249 16.2715 1.08162 16.4196 1.03868C16.567 0.995942 16.7314 0.990255 17.2986 0.990255H24.7797C25.2588 0.990255 25.5843 0.990666 25.8377 1.01003C26.0853 1.02894 26.2145 1.06341 26.3045 1.10468C26.7148 1.29278 27.0382 1.69547 27.1893 2.20636C27.2224 2.31844 27.2501 2.47925 27.2653 2.78753C27.2809 3.10311 27.2812 3.5083 27.2812 4.10489V4.13371C27.2812 4.69428 27.2812 5.15733 27.2999 5.5373C27.3193 5.93107 27.3608 6.29676 27.466 6.6526C27.7699 7.68012 28.4203 8.49002 29.2456 8.86833C29.5313 8.99934 29.825 9.05101 30.1413 9.07517C30.4465 9.09848 30.8184 9.09847 31.2686 9.09847H32.1194C32.761 9.09847 33.1968 9.0992 33.5336 9.13346C33.8616 9.16683 34.0287 9.22725 34.145 9.30098C34.4258 9.47912 34.654 9.76337 34.7971 10.113C34.8563 10.2577 34.9049 10.4657 34.9317 10.8741C34.959 11.291 34.9598 11.8297 34.9598 12.6208V14.3642C34.9598 15.1631 34.9592 15.7057 34.9317 16.1251C34.9049 16.5335 34.8563 16.7416 34.7971 16.8863C34.663 17.214 34.454 17.4843 34.197 17.6636C34.1798 17.6756 34.1625 17.6871 34.145 17.6983C34.0287 17.772 33.8617 17.8324 33.5337 17.8658C33.2179 17.8979 32.8151 17.9006 32.2373 17.9008ZM34.9598 8.86516C34.8176 8.70784 34.659 8.57273 34.4875 8.46391C34.0069 8.15899 33.3777 8.15899 32.1194 8.15899H31.2917C30.3519 8.15899 29.8821 8.15899 29.5062 7.98671C28.8885 7.70351 28.4015 7.09721 28.1741 6.32801C28.0357 5.86008 28.0357 5.27502 28.0357 4.10489C28.0357 2.93476 28.0357 2.34969 27.8973 1.88176C27.7992 1.55001 27.6529 1.24855 27.4686 0.990255H32.1194C32.761 0.990255 33.1968 0.990986 33.5336 1.02525C33.8616 1.05862 34.0287 1.11904 34.145 1.19277C34.4257 1.37091 34.654 1.65516 34.7971 2.00478C34.8563 2.14948 34.9049 2.35753 34.9317 2.76593C34.9592 3.1853 34.9598 3.72796 34.9598 4.52685V8.86516Z" fill="#214538"/>
</svg>
