<svg width="25" height="25" viewBox="0 0 25 25" fill="none" xmlns="http://www.w3.org/2000/svg">
<path d="M3.24756 1.31897C2.71503 0.786434 1.85162 0.786434 1.31909 1.31897C0.786556 1.8515 0.786556 2.71491 1.31909 3.24744L2.28333 2.2832L3.24756 1.31897ZM22.8537 24.2172C23.6068 24.2172 24.2173 23.6067 24.2173 22.8536V10.5809C24.2173 9.82774 23.6068 9.21722 22.8537 9.21722C22.1006 9.21722 21.4901 9.82774 21.4901 10.5809V21.4899H10.581C9.82786 21.4899 9.21734 22.1005 9.21734 22.8536C9.21734 23.6067 9.82786 24.2172 10.581 24.2172H22.8537ZM2.28333 2.2832L1.31909 3.24744L21.8895 23.8178L22.8537 22.8536L23.8179 21.8893L3.24756 1.31897L2.28333 2.2832Z" fill="#214538"/>
</svg>
