<svg width="20" height="14" viewBox="0 0 20 14" fill="none" xmlns="http://www.w3.org/2000/svg">
<path d="M1 6.08918C0.496966 6.08918 0.0891764 6.49697 0.0891764 7C0.0891764 7.50303 0.496966 7.91082 1 7.91082L1 7L1 6.08918ZM19.644 7.64405C19.9997 7.28835 19.9997 6.71165 19.644 6.35595L13.8476 0.559504C13.4919 0.203805 12.9152 0.203805 12.5595 0.559504C12.2038 0.915203 12.2038 1.4919 12.5595 1.8476L17.7119 7L12.5595 12.1524C12.2038 12.5081 12.2038 13.0848 12.5595 13.4405C12.9152 13.7962 13.4919 13.7962 13.8476 13.4405L19.644 7.64405ZM1 7L1 7.91082L19 7.91082L19 7L19 6.08918L1 6.08918L1 7Z" fill="#FFFEF1"/>
</svg>
