<svg width="36" height="23" viewBox="0 0 36 23" fill="none" xmlns="http://www.w3.org/2000/svg">
<path d="M1 10.6478C0.447715 10.6478 0 11.0956 0 11.6478C0 12.2001 0.447715 12.6478 1 12.6478V11.6478V10.6478ZM29.1145 12.355C29.505 11.9644 29.505 11.3313 29.1145 10.9407L22.7506 4.57678C22.36 4.18625 21.7269 4.18625 21.3363 4.57678C20.9458 4.9673 20.9458 5.60047 21.3363 5.99099L26.9932 11.6478L21.3363 17.3047C20.9458 17.6952 20.9458 18.3284 21.3363 18.7189C21.7269 19.1094 22.36 19.1094 22.7506 18.7189L29.1145 12.355ZM1 11.6478V12.6478H28.4074V11.6478V10.6478H1V11.6478Z" fill="#214538"/>
<ellipse cx="24.2964" cy="11.3846" rx="10.963" ry="11.3846" fill="#214538"/>
<mask id="mask0_11_9" style="mask-type:alpha" maskUnits="userSpaceOnUse" x="13" y="0" width="23" height="23">
<ellipse cx="24.2965" cy="11.3849" rx="10.963" ry="11.3846" fill="#214538"/>
</mask>
<g mask="url(#mask0_11_9)">
<path d="M1.68527 10.6481C1.13299 10.6481 0.685272 11.0959 0.685272 11.6481C0.685272 12.2004 1.13299 12.6481 1.68527 12.6481V11.6481V10.6481ZM29.7998 12.3553C30.1903 11.9647 30.1903 11.3316 29.7998 10.941L23.4358 4.57708C23.0453 4.18656 22.4121 4.18656 22.0216 4.57708C21.6311 4.9676 21.6311 5.60077 22.0216 5.99129L27.6785 11.6481L22.0216 17.305C21.6311 17.6955 21.6311 18.3287 22.0216 18.7192C22.4121 19.1097 23.0453 19.1097 23.4358 18.7192L29.7998 12.3553ZM1.68527 11.6481V12.6481H29.0927V11.6481V10.6481H1.68527V11.6481Z" fill="white"/>
</g>
</svg>
