<svg width="51" height="51" viewBox="0 0 51 51" fill="none" xmlns="http://www.w3.org/2000/svg">
<path d="M29.4322 0.00119496C27.2547 0.0461868 25.2902 1.37373 24.3854 3.30252C24.2081 3.29868 24.0336 3.28044 23.8557 3.28044C10.7028 3.28044 0 13.9851 0 27.1402C0 40.2953 10.7028 51 23.8557 51C37.0085 51 47.7114 40.2953 47.7114 27.1402C47.7114 26.9633 47.6956 26.7891 47.6918 26.6129C50.0028 25.5318 51.4514 22.9285 50.8724 20.2629C48.689 10.2101 40.7804 2.30076 30.727 0.126282C30.2914 0.0320513 29.8582 -0.00760905 29.4322 0.00119496ZM29.4812 3.75872C29.6284 3.75813 29.7788 3.77454 29.9324 3.80777C38.5392 5.66936 45.3219 12.4544 47.1915 21.0625C47.4587 22.2927 46.5953 23.3729 45.3474 23.3729H41.1516C40.3315 23.3729 39.6277 22.8604 39.3712 22.073V22.0705C37.7587 17.13 33.8659 13.2349 28.9245 11.622C28.1361 11.3645 27.6224 10.6597 27.6224 9.84139V5.6522C27.6224 4.5606 28.451 3.76281 29.4812 3.75872ZM23.8557 7.04778V9.84139C23.8557 12.2805 25.4445 14.4483 27.7548 15.203C31.5472 16.4408 34.5532 19.4483 35.7909 23.2404C36.5439 25.5523 38.7122 27.1402 41.1516 27.1402H43.9447C43.9447 38.2593 34.9729 47.2327 23.8557 47.2327C12.7385 47.2327 3.76669 38.2593 3.76669 27.1402C3.76669 16.0211 12.7385 7.04778 23.8557 7.04778ZM23.8557 18.3498C19.024 18.3498 15.0668 22.3077 15.0668 27.1402C15.0668 31.9727 19.024 35.9307 23.8557 35.9307C28.6874 35.9307 32.6446 31.9727 32.6446 27.1402C32.6446 22.3077 28.6874 18.3498 23.8557 18.3498Z" fill="#FFFEF1"/>
</svg>
