<svg width="48" height="48" viewBox="0 0 48 48" fill="none" xmlns="http://www.w3.org/2000/svg">
<rect width="48" height="48" rx="24" fill="#214538"/>
<path fill-rule="evenodd" clip-rule="evenodd" d="M14.0891 24.0002C14.0891 23.4972 14.4969 23.0894 14.9999 23.0894L30.801 23.0894L26.5594 18.8478C26.2037 18.4921 26.2037 17.9154 26.5594 17.5597C26.9151 17.204 27.4918 17.204 27.8475 17.5597L33.644 23.3562C33.9997 23.7119 33.9997 24.2886 33.644 24.6443L27.8475 30.4407C27.4918 30.7964 26.9151 30.7964 26.5594 30.4407C26.2037 30.085 26.2037 29.5083 26.5594 29.1526L30.801 24.9111L14.9999 24.9111C14.4969 24.9111 14.0891 24.5033 14.0891 24.0002Z" fill="#FFFEF1"/>
</svg>
