<svg width="64" height="64" viewBox="0 0 64 64" fill="none" xmlns="http://www.w3.org/2000/svg">
<rect width="64" height="64" rx="32" fill="#214538"/>
<path d="M45.1712 28.002C44.6806 27.8222 44.3046 27.4788 44.1083 26.9882C43.9121 26.5141 43.9285 25.9908 44.141 25.533C44.9259 23.8815 44.5989 21.9847 43.3071 20.6929C42.0153 19.4011 40.1185 19.0741 38.4834 19.859C38.0092 20.0879 37.5023 20.0879 37.0281 19.8917C36.5539 19.6955 36.1942 19.3194 36.0143 18.8288C35.4093 17.1119 33.8396 16 32.0082 16C30.1932 16 28.6071 17.1119 28.002 18.8288C27.8222 19.3194 27.4788 19.6955 26.9882 19.8917C26.5141 20.0879 25.9908 20.0715 25.533 19.859C23.8815 19.0741 21.9847 19.4011 20.6929 20.6929C19.4011 21.9847 19.0741 23.8815 19.859 25.5166C20.0715 25.9908 20.0879 26.4977 19.8917 26.9719C19.6955 27.4461 19.3194 27.8058 18.8288 27.9857C17.1119 28.5907 16 30.1604 16 31.9918C16 33.8068 17.1119 35.393 18.8288 35.998C19.3194 36.1778 19.6955 36.5212 19.8917 37.0118C20.0879 37.4859 20.0715 38.0092 19.859 38.467C19.0741 40.1185 19.4011 42.0153 20.6929 43.3071C21.9847 44.5989 23.8815 44.9259 25.5166 44.141C25.9908 43.9121 26.4977 43.9121 26.9719 44.1083C27.4461 44.3045 27.8058 44.6806 27.9857 45.1712C28.5907 46.8881 30.1604 48 31.9918 48C33.8068 48 35.3929 46.8881 35.998 45.1712C36.1778 44.6806 36.5376 44.3045 37.0118 44.1083C37.4859 43.9121 38.0092 43.9285 38.467 44.141C40.1185 44.9259 42.0153 44.5989 43.3071 43.3071C44.5989 42.0153 44.9259 40.1185 44.141 38.4834C43.9121 38.0092 43.9121 37.5023 44.1083 37.0281C44.3046 36.5539 44.6806 36.1942 45.1712 36.0143C46.8881 35.4093 48 33.8396 48 32.0082C48 30.1932 46.8881 28.6071 45.1712 28.002ZM44.3536 33.7087C43.2253 34.1175 42.3097 34.9842 41.8518 36.0797C41.394 37.1916 41.4267 38.4507 41.9336 39.5299C42.3424 40.3802 42.0153 41.1323 41.5738 41.5738C41.1323 42.0153 40.3638 42.326 39.5299 41.9172C38.4507 41.394 37.1916 41.3613 36.0797 41.8191C34.9678 42.277 34.1012 43.1926 33.6924 44.3209C33.3817 45.2039 32.6132 45.5146 31.9918 45.5146C31.3705 45.5146 30.6183 45.2039 30.2913 44.3209C29.8825 43.1926 29.0158 42.277 27.9039 41.8191C27.3807 41.6065 26.8247 41.4921 26.2688 41.4921C25.6474 41.4921 25.0261 41.6229 24.4538 41.9009C23.6035 42.3097 22.8513 41.9826 22.4098 41.5411C21.9683 41.0996 21.6576 40.3475 22.0501 39.4972C22.5733 38.418 22.606 37.1589 22.1482 36.047C21.6903 34.9351 20.7747 34.0685 19.6464 33.6597C18.7634 33.349 18.4527 32.5805 18.4527 31.9591C18.4527 31.3378 18.7634 30.5856 19.6464 30.2586C20.7747 29.8498 21.6903 28.9831 22.1482 27.8876C22.606 26.7757 22.5733 25.5166 22.0664 24.4374C21.6576 23.5871 21.9847 22.835 22.4262 22.3935C22.8513 21.952 23.6198 21.6413 24.4701 22.0337C25.5493 22.5406 26.8084 22.5897 27.9203 22.1155C29.0322 21.6576 29.8988 20.742 30.3076 19.6137C30.6183 18.7307 31.3868 18.42 32.0082 18.42C32.6295 18.42 33.3817 18.7307 33.7087 19.6137C34.1175 20.742 34.9842 21.6576 36.0961 22.1155C37.208 22.5733 38.467 22.5406 39.5462 22.0337C40.3965 21.6249 41.165 21.952 41.5902 22.3935C42.0317 22.835 42.3424 23.5871 41.9336 24.4374C41.4103 25.5166 41.394 26.7757 41.8518 27.8876C42.3097 28.9995 43.2253 29.8661 44.3536 30.2586C45.2366 30.5692 45.5473 31.3378 45.5473 31.9591C45.5473 32.5805 45.2366 33.3327 44.3536 33.6597V33.7087Z" fill="white"/>
<path d="M32.8748 30.7977H31.2396C30.5692 30.7977 30.0133 30.2418 30.0133 29.5713C30.0133 28.9009 30.5692 28.345 31.3868 28.345C32.0082 28.345 32.6295 28.4758 33.1855 28.7374C33.7905 29.0154 34.5263 28.7374 34.8043 28.1324C35.0823 27.511 34.8043 26.7916 34.1993 26.5136C33.905 26.3828 33.5943 26.301 33.2836 26.2193V25.4998C33.2836 24.8294 32.7276 24.2734 32.0572 24.2734C31.3868 24.2734 30.8309 24.8294 30.8309 25.4998V25.9576C28.9995 26.1702 27.5605 27.7073 27.5605 29.5877C27.5605 31.6153 29.2121 33.2668 31.2396 33.2668H32.8748C33.5452 33.2668 34.1012 33.8227 34.1012 34.4932C34.1012 35.1636 33.5452 35.7195 32.7276 35.7195C32.1063 35.7195 31.4849 35.5887 30.929 35.3271C30.324 35.0491 29.5881 35.3271 29.3102 35.9321C29.0322 36.5371 29.3102 37.2729 29.9152 37.5509C30.2095 37.6817 30.5202 37.7635 30.8309 37.8452V38.5647C30.8309 39.2351 31.3868 39.7911 32.0572 39.7911C32.7276 39.7911 33.2836 39.2351 33.2836 38.5647V38.1069C35.115 37.8943 36.5539 36.3572 36.5539 34.4768C36.5539 32.4492 34.9024 30.7977 32.8748 30.7977Z" fill="white"/>
</svg>
