<svg width="41" height="42" viewBox="0 0 41 42" fill="none" xmlns="http://www.w3.org/2000/svg">
<path d="M9.4732 4.76074C6.4826 4.76074 4.06 7.18334 4.06 10.1739C4.06 13.1645 6.4826 15.5871 9.4732 15.5871C12.4638 15.5871 14.8864 13.1645 14.8864 10.1739C14.8868 7.18334 12.4642 4.76074 9.4732 4.76074ZM9.4732 12.8807C7.97912 12.8807 6.76639 11.668 6.76639 10.1739C6.76639 8.67986 7.97912 7.46714 9.4732 7.46714C10.9673 7.46714 12.18 8.67986 12.18 10.1739C12.18 11.668 10.9673 12.8807 9.4732 12.8807Z" fill="white"/>
<path d="M36.54 10.1758L35.5051 7.67444C32.8223 8.78525 30.6534 10.7373 29.2685 13.2387C26.9836 11.6553 24.3202 10.853 21.6532 10.8526V13.5594C23.9451 13.5602 26.1204 14.2878 27.9377 15.6142C23.9028 15.7404 20.2578 17.4107 17.5936 20.0765L19.5071 21.99C21.8513 19.6441 24.9588 18.3429 28.2665 18.3031C27.8004 22.8897 26.144 27.3703 23.3182 31.2687C16.8328 30.8116 10.286 31.8213 4.06 34.3255V37.2426C14.0923 32.9077 25.7213 32.5602 36.54 37.2398V34.3214C33.2214 32.9869 29.8105 32.0763 26.366 31.5846C28.9669 27.5839 30.5698 23.0334 30.9981 18.2264C32.32 19.3218 33.3639 20.7269 34.039 22.3554L36.54 21.3225C35.7203 19.3429 34.4714 17.6762 32.957 16.3584C34.0711 15.8594 35.2842 15.589 36.54 15.589V12.8826C34.97 12.8826 33.4739 13.1997 32.1101 13.7709C33.2254 12.1368 34.7796 10.9046 36.54 10.1758Z" fill="white"/>
<path d="M17.5938 23.7089H6.76703V26.4153H17.5938V23.7089Z" fill="white"/>
<path d="M9.4732 18.2926H4.06V20.9994H9.4732V18.2926Z" fill="white"/>
</svg>
