<svg width="40" height="40" viewBox="0 0 40 40" fill="none" xmlns="http://www.w3.org/2000/svg">
<path d="M13.3115 7.75H10.7635C10.2891 7.75 9.83422 7.93843 9.49882 8.27384C9.16341 8.60925 8.97498 9.06416 8.97498 9.5385V12.0865C8.97498 12.5608 9.16341 13.0158 9.49882 13.3512C9.83422 13.6866 10.2891 13.875 10.7635 13.875H13.3115C13.7858 13.875 14.2407 13.6866 14.5761 13.3512C14.9115 13.0158 15.1 12.5608 15.1 12.0865V9.5385C15.1 9.06416 14.9115 8.60925 14.5761 8.27384C14.2407 7.93843 13.7858 7.75 13.3115 7.75ZM12.65 11.425H11.425V10.2H12.65V11.425Z" fill="white"/>
<path d="M20.6615 7.75H18.1135C17.6391 7.75 17.1842 7.93843 16.8488 8.27384C16.5134 8.60925 16.325 9.06416 16.325 9.5385V12.0865C16.325 12.5608 16.5134 13.0158 16.8488 13.3512C17.1842 13.6866 17.6391 13.875 18.1135 13.875H20.6615C21.1358 13.875 21.5907 13.6866 21.9261 13.3512C22.2615 13.0158 22.45 12.5608 22.45 12.0865V9.5385C22.45 9.06416 22.2615 8.60925 21.9261 8.27384C21.5907 7.93843 21.1358 7.75 20.6615 7.75ZM20 11.425H18.775V10.2H20V11.425Z" fill="white"/>
<path d="M28.0114 7.75H25.4634C24.9891 7.75 24.5342 7.93843 24.1988 8.27384C23.8634 8.60925 23.6749 9.06416 23.6749 9.5385V12.0865C23.6749 12.5608 23.8634 13.0158 24.1988 13.3512C24.5342 13.6866 24.9891 13.875 25.4634 13.875H28.0114C28.4858 13.875 28.9407 13.6866 29.2761 13.3512C29.6115 13.0158 29.7999 12.5608 29.7999 12.0865V9.5385C29.7999 9.06416 29.6115 8.60925 29.2761 8.27384C28.9407 7.93843 28.4858 7.75 28.0114 7.75ZM27.3499 11.425H26.1249V10.2H27.3499V11.425Z" fill="white"/>
<path d="M13.3115 16.325H10.7635C10.2891 16.325 9.83422 16.5134 9.49882 16.8488C9.16341 17.1842 8.97498 17.6391 8.97498 18.1135V20.6615C8.97498 21.1358 9.16341 21.5907 9.49882 21.9261C9.83422 22.2615 10.2891 22.45 10.7635 22.45H13.3115C13.7858 22.45 14.2407 22.2615 14.5761 21.9261C14.9115 21.5907 15.1 21.1358 15.1 20.6615V18.1135C15.1 17.6391 14.9115 17.1842 14.5761 16.8488C14.2407 16.5134 13.7858 16.325 13.3115 16.325ZM12.65 20H11.425V18.775H12.65V20Z" fill="white"/>
<path d="M20.6615 16.325H18.1135C17.6391 16.325 17.1842 16.5134 16.8488 16.8488C16.5134 17.1842 16.325 17.6391 16.325 18.1135V20.6615C16.325 21.1358 16.5134 21.5907 16.8488 21.9261C17.1842 22.2615 17.6391 22.45 18.1135 22.45H20.6615C21.1358 22.45 21.5907 22.2615 21.9261 21.9261C22.2615 21.5907 22.45 21.1358 22.45 20.6615V18.1135C22.45 17.6391 22.2615 17.1842 21.9261 16.8488C21.5907 16.5134 21.1358 16.325 20.6615 16.325ZM20 20H18.775V18.775H20V20Z" fill="white"/>
<path d="M28.0114 16.325H25.4634C24.9891 16.325 24.5342 16.5134 24.1988 16.8488C23.8634 17.1842 23.6749 17.6391 23.6749 18.1135V20.6615C23.6749 21.1358 23.8634 21.5907 24.1988 21.9261C24.5342 22.2615 24.9891 22.45 25.4634 22.45H28.0114C28.4858 22.45 28.9407 22.2615 29.2761 21.9261C29.6115 21.5907 29.7999 21.1358 29.7999 20.6615V18.1135C29.7999 17.6391 29.6115 17.1842 29.2761 16.8488C28.9407 16.5134 28.4858 16.325 28.0114 16.325ZM27.3499 20H26.1249V18.775H27.3499V20Z" fill="white"/>
<path d="M34.7 34.7H33.475V5.39798C33.475 4.7222 33.2065 4.07411 32.7287 3.59627C32.2508 3.11842 31.6027 2.84998 30.927 2.84998H7.84798C7.1722 2.84998 6.52411 3.11842 6.04627 3.59627C5.56843 4.07411 5.29998 4.7222 5.29998 5.39798V34.7H4.07498C3.75009 34.7 3.4385 34.829 3.20877 35.0588C2.97904 35.2885 2.84998 35.6001 2.84998 35.925C2.84998 36.2499 2.97904 36.5615 3.20877 36.7912C3.4385 37.0209 3.75009 37.15 4.07498 37.15H34.7C35.0249 37.15 35.3365 37.0209 35.5662 36.7912C35.7959 36.5615 35.925 36.2499 35.925 35.925C35.925 35.6001 35.7959 35.2885 35.5662 35.0588C35.3365 34.829 35.0249 34.7 34.7 34.7ZM15.1 34.7V31.6375C15.1 30.5004 15.5517 29.4098 16.3558 28.6058C17.1598 27.8017 18.2504 27.35 19.3875 27.35C20.5246 27.35 21.6151 27.8017 22.4192 28.6058C23.2233 29.4098 23.675 30.5004 23.675 31.6375V34.7H15.1ZM26.125 34.7V31.6375C26.125 29.8506 25.4151 28.1369 24.1516 26.8733C22.8881 25.6098 21.1744 24.9 19.3875 24.9C17.6006 24.9 15.8869 25.6098 14.6233 26.8733C13.3598 28.1369 12.65 29.8506 12.65 31.6375V34.7H7.74998V5.39798C7.74788 5.38463 7.74897 5.37098 7.75316 5.35813C7.75734 5.34528 7.7645 5.33361 7.77406 5.32406C7.78361 5.3145 7.79528 5.30734 7.80813 5.30316C7.82098 5.29897 7.83463 5.29788 7.84798 5.29998H30.927C30.9403 5.29788 30.954 5.29897 30.9668 5.30316C30.9797 5.30734 30.9913 5.3145 31.0009 5.32406C31.0104 5.33361 31.0176 5.34528 31.0218 5.35813C31.026 5.37098 31.0271 5.38463 31.025 5.39798V34.7H26.125Z" fill="white"/>
</svg>
