<svg width="40" height="18" viewBox="0 0 40 18" fill="none" xmlns="http://www.w3.org/2000/svg">
<path d="M3.55246 10.6655C3.31001 10.4217 3.31001 10.0263 3.55246 9.78243C3.79491 9.53857 4.18799 9.53857 4.43044 9.78243L6.71314 12.0784L8.99573 9.78254C9.23818 9.53868 9.63126 9.53868 9.87371 9.78254C10.1162 10.0264 10.1162 10.4218 9.87371 10.6656L7.59113 12.9615L9.87396 15.2577C10.1164 15.5016 10.1164 15.8969 9.87396 16.1408C9.63151 16.3847 9.23842 16.3847 8.99597 16.1408L6.71314 13.8447L4.4302 16.1409C4.18775 16.3848 3.79466 16.3848 3.55221 16.1409C3.30976 15.8971 3.30976 15.5017 3.55221 15.2578L5.83515 12.9615L3.55246 10.6655Z" fill="#214538"/>
<path d="M30.8689 10.6655C30.6265 10.4217 30.6265 10.0263 30.8689 9.78243C31.1114 9.53857 31.5045 9.53857 31.7469 9.78243L34.0296 12.0785L36.3123 9.78254C36.5547 9.53868 36.9478 9.53868 37.1903 9.78254C37.4327 10.0264 37.4327 10.4218 37.1903 10.6656L34.9076 12.9616L37.1904 15.2577C37.4329 15.5016 37.4329 15.8969 37.1904 16.1408C36.948 16.3847 36.5549 16.3847 36.3124 16.1408L34.0296 13.8447L31.7468 16.1409C31.5043 16.3848 31.1112 16.3848 30.8688 16.1409C30.6263 15.8971 30.6263 15.5017 30.8688 15.2578L33.1517 12.9616L30.8689 10.6655Z" fill="#214538"/>
<path fill-rule="evenodd" clip-rule="evenodd" d="M40 4.81931C40 3.40175 40 2.69298 39.7257 2.15154C39.4845 1.67528 39.0995 1.28807 38.626 1.04541C38.0877 0.769531 37.383 0.769531 35.9737 0.769531H19.0954C18.4796 0.769531 18.1716 0.769531 17.8819 0.839543C17.625 0.901615 17.3794 1.00399 17.1542 1.14292C16.9001 1.29961 16.6825 1.51871 16.2472 1.95692L11.5742 6.66122C11.1389 7.09943 10.9213 7.31854 10.6672 7.47523C10.442 7.61415 10.1964 7.71653 9.93953 7.7786C9.64976 7.84862 9.34183 7.84862 8.72597 7.84862H4.02629C2.61696 7.84862 1.91229 7.84862 1.374 8.12449C0.900499 8.36716 0.515533 8.75437 0.274275 9.23063C0 9.77206 0 10.4808 0 11.8984V13.7198C0 15.1373 0 15.8461 0.274275 16.3875C0.515533 16.8638 0.900499 17.251 1.374 17.4937C1.91229 17.7695 2.61696 17.7695 4.02629 17.7695L36.2298 17.7695C37.4705 17.7685 38.1214 17.7523 38.626 17.4937C39.0995 17.251 39.4845 16.8638 39.7257 16.3875C40 15.8461 40 15.1373 40 13.7198V4.81931ZM36.1058 16.9195L4.02629 16.9195C3.30768 16.9195 2.81954 16.9189 2.44232 16.8879C2.07496 16.8577 1.88781 16.803 1.75765 16.7363C1.44316 16.5751 1.18748 16.318 1.02724 16.0016C0.960918 15.8707 0.906563 15.6825 0.876548 15.313C0.845728 14.9335 0.84507 14.4426 0.84507 13.7198V11.8984C0.84507 11.1756 0.845728 10.6846 0.876548 10.3052C0.906563 9.93568 0.960918 9.74744 1.02724 9.61652C1.18748 9.3002 1.44316 9.04302 1.75765 8.88185C1.88781 8.81514 2.07496 8.76047 2.44232 8.73028C2.81954 8.69928 3.30768 8.69862 4.02629 8.69862L8.92195 8.69866C9.40908 8.69877 9.78449 8.69568 10.1482 8.6105C10.4817 8.53236 10.8015 8.40341 11.0963 8.2281C11.4305 8.02938 11.7129 7.75769 12.0857 7.39903L17.1766 2.50592C17.6359 2.06448 17.7726 1.94023 17.9185 1.85347C18.0651 1.76631 18.2241 1.70219 18.3899 1.66334C18.555 1.62468 18.7392 1.61953 19.3744 1.61953H27.7533C28.2899 1.61953 28.6544 1.6199 28.9383 1.63742C29.2156 1.65453 29.3602 1.68572 29.461 1.72306C29.9206 1.89324 30.2828 2.25758 30.452 2.71981C30.4891 2.82122 30.5201 2.96672 30.5371 3.24563C30.5546 3.53116 30.5549 3.89776 30.5549 4.43753V4.46361C30.5549 4.97079 30.5549 5.38975 30.5759 5.73353C30.5976 6.08979 30.6441 6.42066 30.7619 6.74261C31.1022 7.67226 31.8308 8.40504 32.755 8.74731C33.0751 8.86585 33.404 8.9126 33.7583 8.93445C34.1 8.95554 34.5166 8.95554 35.0208 8.95553H35.9737C36.6923 8.95553 37.1805 8.95619 37.5577 8.98719C37.925 9.01738 38.1122 9.07205 38.2424 9.13876C38.5568 9.29993 38.8125 9.55711 38.9728 9.87343C39.0391 10.0044 39.0934 10.1926 39.1235 10.5621C39.1541 10.9393 39.1549 11.4267 39.1549 12.1424V13.7198C39.1549 14.4425 39.1543 14.9335 39.1235 15.3129C39.0934 15.6824 39.0391 15.8707 38.9728 16.0016C38.8225 16.2982 38.5884 16.5427 38.3006 16.705C38.2814 16.7158 38.262 16.7262 38.2423 16.7363C38.1122 16.803 37.9251 16.8577 37.5577 16.8879C37.2041 16.9169 36.7529 16.9193 36.1058 16.9195ZM39.1549 8.74445C38.9957 8.60211 38.8181 8.47986 38.626 8.38141C38.0877 8.10553 37.383 8.10553 35.9737 8.10553H35.0467C33.9942 8.10553 33.4679 8.10553 33.047 7.94966C32.3551 7.69343 31.8097 7.14487 31.555 6.44893C31.4 6.02557 31.4 5.49622 31.4 4.43753C31.4 3.37884 31.4 2.8495 31.245 2.42613C31.1352 2.12597 30.9712 1.85323 30.7648 1.61953H35.9737C36.6923 1.61953 37.1805 1.62019 37.5577 1.65119C37.925 1.68138 38.1122 1.73605 38.2424 1.80276C38.5568 1.96394 38.8125 2.22111 38.9728 2.53743C39.0391 2.66835 39.0934 2.85659 39.1235 3.2261C39.1543 3.60552 39.1549 4.09651 39.1549 4.81931V8.74445Z" fill="#214538"/>
</svg>
