<svg width="18" height="28" viewBox="0 0 18 28" fill="none" xmlns="http://www.w3.org/2000/svg">
<path d="M10.191 1.29572C10.191 0.637931 9.65778 0.104691 9 0.104691C8.34222 0.104691 7.80898 0.637931 7.80898 1.29572H9H10.191ZM8.15782 27.5464C8.62294 28.0115 9.37706 28.0115 9.84218 27.5464L17.4218 19.9668C17.8869 19.5017 17.8869 18.7475 17.4218 18.2824C16.9567 17.8173 16.2026 17.8173 15.7374 18.2824L9 25.0199L2.26255 18.2824C1.79743 17.8173 1.04331 17.8173 0.578188 18.2824C0.113064 18.7475 0.113064 19.5017 0.578188 19.9668L8.15782 27.5464ZM9 1.29572H7.80898V26.7042H9H10.191V1.29572H9Z" fill="#FFFEF1"/>
</svg>
